<svg viewBox="0 0 600 450" xmlns="http://www.w3.org/2000/svg" role="img" aria-label="Proofreading and editing sample">
  <rect width="600" height="450" fill="#e8d8b8"/>
  <rect x="80" y="40" width="440" height="370" fill="#faf7f2" stroke="#d8c8a8"/>
  <text x="100" y="80" font-family="Helvetica, Arial, sans-serif" font-size="11" letter-spacing="3" fill="#6b4423" font-weight="600">EDITING · TRACK CHANGES</text>
  <text x="100" y="115" font-family="Georgia, serif" font-size="22" font-weight="500" fill="#1a1814">Final draft</text>

  <rect x="100" y="150" width="380" height="6" fill="#c8b8a0" rx="3"/>
  <rect x="100" y="165" width="120" height="6" fill="#a83e3e" rx="3" opacity="0.4"/>
  <line x1="100" y1="168" x2="220" y2="168" stroke="#a83e3e" stroke-width="1.5"/>
  <rect x="225" y="165" width="180" height="6" fill="#3e7a4f" rx="3" opacity="0.7"/>
  <rect x="100" y="180" width="370" height="6" fill="#c8b8a0" rx="3"/>
  <rect x="100" y="210" width="380" height="6" fill="#c8b8a0" rx="3"/>
  <rect x="100" y="225" width="200" height="6" fill="#a83e3e" rx="3" opacity="0.4"/>
  <line x1="100" y1="228" x2="300" y2="228" stroke="#a83e3e" stroke-width="1.5"/>
  <rect x="305" y="225" width="170" height="6" fill="#3e7a4f" rx="3" opacity="0.7"/>
  <rect x="100" y="240" width="350" height="6" fill="#c8b8a0" rx="3"/>
  <rect x="100" y="270" width="380" height="6" fill="#c8b8a0" rx="3"/>
  <rect x="100" y="285" width="360" height="6" fill="#c8b8a0" rx="3"/>
  <rect x="100" y="300" width="220" height="6" fill="#3e7a4f" rx="3" opacity="0.7"/>
  <rect x="100" y="330" width="380" height="6" fill="#c8b8a0" rx="3"/>
  <rect x="100" y="345" width="320" height="6" fill="#c8b8a0" rx="3"/>

  <text x="100" y="385" font-family="Georgia, serif" font-size="14" font-style="italic" fill="#6b4423">Sample · before/after</text>
</svg>
