<svg viewBox="0 0 600 450" xmlns="http://www.w3.org/2000/svg" role="img" aria-label="Literature review sample">
  <rect width="600" height="450" fill="#e8d8b8"/>
  <rect x="80" y="40" width="440" height="370" fill="#faf7f2" stroke="#d8c8a8"/>
  <text x="100" y="80" font-family="Helvetica, Arial, sans-serif" font-size="11" letter-spacing="3" fill="#6b4423" font-weight="600">LITERATURE REVIEW</text>
  <text x="100" y="115" font-family="Georgia, serif" font-size="22" font-weight="500" fill="#1a1814">Annotated bibliography</text>
  <line x1="100" y1="135" x2="500" y2="135" stroke="#d8c8a8"/>
  <text x="100" y="165" font-family="Georgia, serif" font-size="13" font-weight="600" fill="#1a1814">Smith, J. (2023).</text>
  <rect x="100" y="180" width="380" height="5" fill="#c8b8a0" rx="2"/>
  <rect x="100" y="192" width="350" height="5" fill="#c8b8a0" rx="2"/>
  <rect x="100" y="204" width="370" height="5" fill="#c8b8a0" rx="2"/>
  <text x="100" y="240" font-family="Georgia, serif" font-size="13" font-weight="600" fill="#1a1814">Khan, A. (2022).</text>
  <rect x="100" y="255" width="380" height="5" fill="#c8b8a0" rx="2"/>
  <rect x="100" y="267" width="340" height="5" fill="#c8b8a0" rx="2"/>
  <text x="100" y="305" font-family="Georgia, serif" font-size="13" font-weight="600" fill="#1a1814">Patel, R. (2024).</text>
  <rect x="100" y="320" width="380" height="5" fill="#c8b8a0" rx="2"/>
  <rect x="100" y="332" width="360" height="5" fill="#c8b8a0" rx="2"/>
  <rect x="100" y="344" width="320" height="5" fill="#c8b8a0" rx="2"/>
  <text x="100" y="385" font-family="Georgia, serif" font-size="14" font-style="italic" fill="#6b4423">Sample · 24 sources</text>
</svg>
