<svg viewBox="0 0 600 450" xmlns="http://www.w3.org/2000/svg" role="img" aria-label="English to Urdu translation sample">
  <rect width="600" height="450" fill="#f0e6d2"/>
  <rect x="40" y="40" width="250" height="370" fill="#faf7f2" stroke="#d8c8a8"/>
  <rect x="310" y="40" width="250" height="370" fill="#faf7f2" stroke="#d8c8a8"/>
  <text x="60" y="78" font-family="Helvetica, Arial, sans-serif" font-size="10" letter-spacing="3" fill="#6b4423" font-weight="600">EN</text>
  <text x="330" y="78" font-family="Helvetica, Arial, sans-serif" font-size="10" letter-spacing="3" fill="#6b4423" font-weight="600">UR</text>
  <text x="60" y="115" font-family="Georgia, serif" font-size="18" font-weight="500" fill="#1a1814">Source</text>
  <text x="330" y="115" font-family="Georgia, serif" font-size="18" font-weight="500" fill="#1a1814">Translation</text>
  <rect x="60" y="140" width="210" height="5" fill="#c8b8a0" rx="2"/>
  <rect x="60" y="152" width="190" height="5" fill="#c8b8a0" rx="2"/>
  <rect x="60" y="164" width="200" height="5" fill="#c8b8a0" rx="2"/>
  <rect x="60" y="176" width="170" height="5" fill="#c8b8a0" rx="2"/>
  <rect x="60" y="200" width="210" height="5" fill="#c8b8a0" rx="2"/>
  <rect x="60" y="212" width="180" height="5" fill="#c8b8a0" rx="2"/>
  <rect x="60" y="224" width="200" height="5" fill="#c8b8a0" rx="2"/>
  <rect x="350" y="140" width="210" height="5" fill="#c8b8a0" rx="2"/>
  <rect x="370" y="152" width="190" height="5" fill="#c8b8a0" rx="2"/>
  <rect x="360" y="164" width="200" height="5" fill="#c8b8a0" rx="2"/>
  <rect x="390" y="176" width="170" height="5" fill="#c8b8a0" rx="2"/>
  <rect x="350" y="200" width="210" height="5" fill="#c8b8a0" rx="2"/>
  <rect x="380" y="212" width="180" height="5" fill="#c8b8a0" rx="2"/>
  <rect x="360" y="224" width="200" height="5" fill="#c8b8a0" rx="2"/>
  <text x="50%" y="385" font-family="Georgia, serif" font-size="14" font-style="italic" fill="#6b4423" text-anchor="middle">English ↔ Urdu sample</text>
</svg>
